<svg width="152" height="152" viewBox="0 0 152 152" fill="none" xmlns="http://www.w3.org/2000/svg">
<rect x="92.2832" y="37.0952" width="25.3333" height="25.3333" fill="#E4F7F7"/>
<rect x="120.33" y="19" width="16.2857" height="16.2857" fill="#E4F7F7"/>
<path d="M76 -3.32207e-06C60.9686 -2.66502e-06 46.2748 4.45732 33.7767 12.8083C21.2785 21.1593 11.5374 33.0289 5.78515 46.9161C0.0328914 60.8032 -1.47216 76.0843 1.46032 90.8269C4.39279 105.569 11.6311 119.111 22.2599 129.74C32.8887 140.369 46.4306 147.607 61.1731 150.54C75.9157 153.472 91.1968 151.967 105.084 146.215C118.971 140.463 130.841 130.721 139.192 118.223C147.543 105.725 152 91.0314 152 76L76 76L76 -3.32207e-06Z" fill="#E4F7F7"/>
</svg>
